<?xml version="1.0" encoding="UTF-8"?>
<svg width="16px" height="16px" viewBox="0 0 16 16" version="1.1" xmlns="http://www.w3.org/2000/svg" xmlns:xlink="http://www.w3.org/1999/xlink">
    <title>铃铛</title>
    <g id="【5月】【8509】升级客户端升级公告&amp;通知" stroke="none" stroke-width="1" fill="none" fill-rule="evenodd">
        <g id="2【8509】通知" transform="translate(-1467.000000, -5.000000)" fill="#FFFFFF" fill-rule="nonzero">
            <g id="顶部右侧功能区" transform="translate(1420.000000, 0.000000)">
                <g id="通知" transform="translate(40.000000, 0.000000)">
                    <g transform="translate(7.000000, 1.000000)" id="铃铛">
                        <g transform="translate(0.000000, 4.000000)">
                            <path d="M8.42857143,1.09821429 C11.316,1.36660714 13.5714286,3.65089286 13.5714286,6.42857143 L13.5714286,11.7857143 L14.1428571,11.7857143 C14.4584484,11.7857143 14.7142857,12.0255617 14.7142857,12.3214286 C14.7142857,12.6172954 14.4584484,12.8571429 14.1428571,12.8571429 L10.1428571,12.8571429 C10.1428571,14.0406102 9.119508,15 7.85714286,15 C6.59477771,15 5.57142857,14.0406102 5.57142857,12.8571429 L1.57142857,12.8571429 C1.25583729,12.8571429 1,12.6172954 1,12.3214286 C1,12.0255617 1.25583729,11.7857143 1.57142857,11.7857143 L2.14285714,11.7857143 L2.14285714,6.42857143 C2.14285714,3.65089286 4.39828571,1.36660714 7.28571429,1.09821429 L7.28571429,0.535714286 C7.28571429,0.239847455 7.54155157,0 7.85714286,0 C8.17273414,0 8.42857143,0.239847455 8.42857143,0.535714286 L8.42857143,1.09821429 Z M12.4285714,11.7857143 L12.4285714,6.42857143 C12.4285714,4.06163679 10.3818731,2.14285714 7.85714286,2.14285714 C5.33241257,2.14285714 3.28571429,4.06163679 3.28571429,6.42857143 L3.28571429,11.7857143 L2.14285714,11.7857143 L12.4285714,11.7857143 Z M9,12.8571429 L6.71428571,12.8571429 C6.71428571,13.4488765 7.22596029,13.9285714 7.85714286,13.9285714 C8.48832543,13.9285714 9,13.4488765 9,12.8571429 Z" id="形状"></path>
                        </g>
                    </g>
                </g>
            </g>
        </g>
    </g>
</svg>