<?xml version="1.0" standalone="no"?><!DOCTYPE svg PUBLIC "-//W3C//DTD SVG 1.1//EN" "http://www.w3.org/Graphics/SVG/1.1/DTD/svg11.dtd"><svg class="icon" width="64px" height="64.00px" viewBox="0 0 1024 1024" version="1.1" xmlns="http://www.w3.org/2000/svg"><path fill="#d2d2d2" d="M170.666667 213.333333h503.04v178.773334h-22.272S608.981333 282.88 558.933333 273.365333c-50.090667-9.514667-84.906667-2.986667-84.906666-2.986666l-0.64 455.68s13.909333 30.805333 36.864 33.024h50.773333v31.445333H283.434667l0.682666-32.256 44.501334-0.725333s33.408-11.008 33.408-36.693334L362.666667 274.133333s-54.912-7.978667-83.456-0.64C250.666667 280.746667 200.533333 324.693333 192.853333 389.12L170.666667 389.888V213.333333z"  /><path fill="#d2d2d2" d="M837.76 460.501333v102.144h-12.714667s-24.277333-62.378667-52.906666-67.84c-28.586667-5.418667-48.512-1.706667-48.512-1.706666l-0.341334 260.437333s7.936 17.578667 21.034667 18.816h29.013333v18.005333h-158.592l0.384-18.432 25.429334-0.426666s19.072-6.272 19.072-20.906667l0.426666-255.36s-31.402667-4.565333-47.744-0.384c-16.256 4.181333-44.928 29.269333-49.28 66.133333l-12.714666 0.426667v-100.906667h287.445333z"  /></svg>