<?xml version="1.0" standalone="no"?><!DOCTYPE svg PUBLIC "-//W3C//DTD SVG 1.1//EN" "http://www.w3.org/Graphics/SVG/1.1/DTD/svg11.dtd"><svg class="icon" width="128px" height="128.00px" viewBox="0 0 1024 1024" version="1.1" xmlns="http://www.w3.org/2000/svg"><path d="M512 512m-512 0a512 512 0 1 0 1024 0 512 512 0 1 0-1024 0Z" fill="#F0F1F2" /><path d="M620.7488 422.8096c7.048533 0 13.994667 0.512 20.923733 1.28C622.865067 337.442133 529.2032 273.066667 422.263467 273.066667 302.728533 273.066667 204.8 353.621333 204.8 455.953067c0 59.067733 32.580267 107.5712 87.04 145.186133l-21.76 64.682667 75.997867-37.6832c27.221333 5.3248 49.032533 10.786133 76.1856 10.786133 6.826667 0 13.585067-0.324267 20.309333-0.853333a158.498133 158.498133 0 0 1-6.724267-45.056c0-93.952 81.578667-170.205867 184.900267-170.205867z m-116.9408-58.299733c16.366933 0 27.221333 10.6496 27.221333 26.8288 0 16.128-10.8544 26.914133-27.221333 26.914133-16.298667 0-32.648533-10.786133-32.648533-26.914133 0-16.1792 16.349867-26.8288 32.648533-26.8288z m-152.183467 53.742933c-16.298667 0-32.768-10.786133-32.768-26.914133 0-16.1792 16.469333-26.8288 32.768-26.8288s27.136 10.6496 27.136 26.8288c0 16.128-10.837333 26.914133-27.136 26.914133zM819.2 590.421333c0-85.9648-86.9888-156.0576-184.712533-156.0576-103.458133 0-184.951467 70.0928-184.951467 156.0576 0 86.135467 81.493333 156.074667 184.951467 156.074667 21.674667 0 43.52-5.410133 65.262933-10.8032L759.381333 768l-16.349866-53.742933C786.688 681.864533 819.2 638.9248 819.2 590.421333zM574.532267 563.541333c-10.820267 0-21.76-10.6496-21.76-21.504 0-10.717867 10.922667-21.521067 21.76-21.521066 16.4352 0 27.221333 10.8032 27.221333 21.504 0 10.871467-10.786133 21.521067-27.221333 21.521066z m119.6032 0c-10.752 0-21.6064-10.6496-21.6064-21.504 0-10.717867 10.8544-21.521067 21.6064-21.521066 16.298667 0 27.221333 10.8032 27.221333 21.504 0 10.871467-10.922667 21.521067-27.221333 21.521066z" fill="#00BA00" /></svg>