<?xml version="1.0" standalone="no"?><!DOCTYPE svg PUBLIC "-//W3C//DTD SVG 1.1//EN" "http://www.w3.org/Graphics/SVG/1.1/DTD/svg11.dtd"><svg class="icon" width="64px" height="64.00px" viewBox="0 0 1024 1024" version="1.1" xmlns="http://www.w3.org/2000/svg"><path fill="#303133" d="M651.178667 883.797333a42.496 42.496 0 1 1 0 84.992H223.573333c-81.706667 0-139.818667-63.701333-139.818666-143.402666l1.237333-612.309334A128 128 0 0 1 212.906667 85.333333h504.96a128 128 0 0 1 128 128.554667l-2.432 563.114667c0 15.189333-8.106667 29.226667-21.248 36.821333-13.141333 7.594667-20.437333 7.594667-33.578667 0a42.496 42.496 0 0 1-21.248-36.821333L766.336 246.613333a85.333333 85.333333 0 0 0-85.418667-85.162666l-435.797333 0.298666a85.504 85.504 0 0 0-85.333333 85.418667v578.218667c0 31.744 28.032 58.410667 63.744 58.410666h427.648z"  /><path fill="#303133" d="M852.394667 798.805333v63.744a21.248 21.248 0 0 0 42.496 0v-63.744h-42.496z m-42.496-84.992h127.488c23.466667 0 42.496 19.029333 42.496 42.496v106.24a106.24 106.24 0 1 1-212.48 0v-106.24c0-23.466667 19.029333-42.496 42.496-42.496zM287.274667 310.144h352.64a42.496 42.496 0 1 1 0 84.992H287.274667a42.496 42.496 0 0 1 0-84.992z m352.64 169.941333a42.496 42.496 0 1 1 0 84.992H287.274667a42.496 42.496 0 0 1 0-84.992h352.64z m-148.693334 169.984a42.496 42.496 0 0 1 0 84.992h-203.946666a42.496 42.496 0 0 1 0-84.992h203.946666z"  /></svg>